<svg xmlns="http://www.w3.org/2000/svg" viewBox="0 0 100 100" width="100" height="100">
  <g stroke="black" stroke-width="2" stroke-linejoin="miter">
    <polygon points="50,15 70,35 50,55 30,35" fill="black"/>
    <polygon points="20,45 40,65 20,85 0,65" fill="white" transform="translate(10,0)"/>
    <polygon points="80,45 100,65 80,85 60,65" fill="white" transform="translate(-10,0)"/>
  </g>
  <defs>
    <pattern id="stripes-19" patternUnits="userSpaceOnUse" width="5" height="5">
      <line x1="0" y1="0" x2="0" y2="5" stroke="black" stroke-width="1.2"/>
    </pattern>
    <clipPath id="clip-19a">
      <polygon points="30,45 50,65 30,85 10,65"/>
    </clipPath>
  </defs>
  <g clip-path="url(#clip-19a)">
    <rect x="0" y="0" width="100" height="100" fill="url(#stripes-19)"/>
  </g>
  <polygon points="30,45 50,65 30,85 10,65" fill="none" stroke="black" stroke-width="2" stroke-linejoin="miter"/>
  <polygon points="70,45 90,65 70,85 50,65" fill="none" stroke="black" stroke-width="2" stroke-linejoin="miter"/>
</svg>
